<svg id="Layer_1" data-name="Layer 1" xmlns="http://www.w3.org/2000/svg" viewBox="0 0 685 455"><defs><style>.cls-1{fill:#ce422f;}</style></defs><title>vhs</title><path class="cls-1" d="M684.53,455H-.23V0H684.53ZM13.58,441.19H670.72V13.81H13.58Z"/><path class="cls-1" d="M684.53,88.73H-.23V0H684.53ZM13.58,74.92H670.72V13.81H13.58Z"/><path class="cls-1" d="M554.73,341.79H129A89.94,89.94,0,0,1,39.17,252v-.62A89.94,89.94,0,0,1,129,161.49H554.73a89.94,89.94,0,0,1,89.84,89.84V252A89.94,89.94,0,0,1,554.73,341.79ZM129,175.3a76.12,76.12,0,0,0-76,76V252a76.12,76.12,0,0,0,76,76H554.73a76.12,76.12,0,0,0,76-76v-.62a76.12,76.12,0,0,0-76-76Z"/><path class="cls-1" d="M465.32,341.79H218.43V161.49H465.32ZM232.23,328H451.51V175.3H232.23Z"/><path class="cls-1" d="M225.33,289a37.74,37.74,0,1,1,0-73.6V170.48a82.13,82.13,0,1,0,0,163.43Z"/><path class="cls-1" d="M458.41,214.84a37.74,37.74,0,1,1,0,73.6v44.91a82.13,82.13,0,1,0,0-163.43Z"/></svg>